<mxfile host="65bd71144e">
    <diagram id="Skj1kze7kufSVExVX1fe" name="Page-1">
        <mxGraphModel dx="604" dy="360" grid="1" gridSize="10" guides="1" tooltips="1" connect="1" arrows="1" fold="1" page="1" pageScale="1" pageWidth="850" pageHeight="1100" math="0" shadow="0">
            <root>
                <mxCell id="0"/>
                <mxCell id="1" parent="0"/>
                <mxCell id="2" value="App" style="rounded=0;whiteSpace=wrap;html=1;verticalAlign=top;" parent="1" vertex="1">
                    <mxGeometry x="155" y="50" width="540" height="390" as="geometry"/>
                </mxCell>
                <mxCell id="3" value="Header" style="rounded=0;whiteSpace=wrap;html=1;" parent="1" vertex="1">
                    <mxGeometry x="230" y="90" width="400" height="60" as="geometry"/>
                </mxCell>
                <mxCell id="4" value="KegControl" style="rounded=0;whiteSpace=wrap;html=1;verticalAlign=top;" parent="1" vertex="1">
                    <mxGeometry x="185" y="160" width="490" height="240" as="geometry"/>
                </mxCell>
                <mxCell id="6" value="NewKegForm" style="rounded=0;whiteSpace=wrap;html=1;direction=west;verticalAlign=top;" parent="1" vertex="1">
                    <mxGeometry x="365" y="190" width="135" height="190" as="geometry"/>
                </mxCell>
                <mxCell id="5" value="KegList" style="rounded=0;whiteSpace=wrap;html=1;direction=west;verticalAlign=top;" parent="1" vertex="1">
                    <mxGeometry x="200" y="190" width="140" height="190" as="geometry"/>
                </mxCell>
                <mxCell id="7" value="KegDetail" style="rounded=0;whiteSpace=wrap;html=1;direction=west;verticalAlign=top;" parent="1" vertex="1">
                    <mxGeometry x="530" y="190" width="130" height="190" as="geometry"/>
                </mxCell>
                <mxCell id="8" value="&lt;font style=&quot;font-size: 8px ; line-height: 0.6&quot;&gt;Keg: Click keg to show detail or button to sell&amp;nbsp; pint&lt;br&gt;&lt;/font&gt;" style="rounded=0;whiteSpace=wrap;html=1;" vertex="1" parent="1">
                    <mxGeometry x="220" y="220" width="100" height="30" as="geometry"/>
                </mxCell>
                <mxCell id="9" value="Keg" style="rounded=0;whiteSpace=wrap;html=1;" vertex="1" parent="1">
                    <mxGeometry x="220" y="260" width="100" height="30" as="geometry"/>
                </mxCell>
                <mxCell id="10" value="Keg" style="rounded=0;whiteSpace=wrap;html=1;" vertex="1" parent="1">
                    <mxGeometry x="220" y="300" width="100" height="30" as="geometry"/>
                </mxCell>
                <mxCell id="11" value="Add Keg button" style="rounded=0;whiteSpace=wrap;html=1;" vertex="1" parent="1">
                    <mxGeometry x="220" y="340" width="100" height="30" as="geometry"/>
                </mxCell>
                <mxCell id="14" value="ReusableForm" style="rounded=0;whiteSpace=wrap;html=1;fontSize=8;verticalAlign=top;" vertex="1" parent="1">
                    <mxGeometry x="372.5" y="225" width="120" height="145" as="geometry"/>
                </mxCell>
                <mxCell id="12" value="Submit&lt;br style=&quot;font-size: 8px;&quot;&gt;will create a keg and show list of kegs&lt;br style=&quot;font-size: 8px;&quot;&gt;" style="rounded=0;whiteSpace=wrap;html=1;fontSize=8;" vertex="1" parent="1">
                    <mxGeometry x="382.5" y="330" width="100" height="30" as="geometry"/>
                </mxCell>
                <mxCell id="13" value="&lt;p style=&quot;line-height: 0.7&quot;&gt;&lt;span style=&quot;font-size: 8px&quot;&gt;Update keg properties&lt;/span&gt;&lt;br&gt;&lt;/p&gt;" style="rounded=0;whiteSpace=wrap;html=1;" vertex="1" parent="1">
                    <mxGeometry x="545" y="300" width="100" height="30" as="geometry"/>
                </mxCell>
                <mxCell id="16" value="&lt;p style=&quot;line-height: 0.7&quot;&gt;&lt;span style=&quot;font-size: 8px&quot;&gt;Return to keg list button&lt;/span&gt;&lt;/p&gt;" style="rounded=0;whiteSpace=wrap;html=1;" vertex="1" parent="1">
                    <mxGeometry x="545" y="340" width="100" height="30" as="geometry"/>
                </mxCell>
                <mxCell id="17" value="&lt;p style=&quot;line-height: 0.7&quot;&gt;&lt;span style=&quot;font-size: 8px&quot;&gt;Delete kegs&lt;/span&gt;&lt;/p&gt;" style="rounded=0;whiteSpace=wrap;html=1;" vertex="1" parent="1">
                    <mxGeometry x="545" y="260" width="100" height="30" as="geometry"/>
                </mxCell>
            </root>
        </mxGraphModel>
    </diagram>
</mxfile>